# xmcd CD database file
#
# Track frame offsets:
#	150
#	24514
#	64013
#	101027
#	146609
#	175377
#	204210
#	244874
#	269354
#	307677
#	334776
#
# Disc length: 4709 seconds
#
# Revision: 0
# Processed by: cddbd v1.5.2PL0 Copyright (c) Steve Scherf et al.
# Submitted via: CDex 1.51
#
DISCID=9512630b
DTITLE=Brad Mehldau Trio - Where Do You Start
DYEAR=2012
DGENRE=Jazz
TTITLE0=Got Me Wrong
TTITLE1=Holland
TTITLE2=Brownie Speaks
TTITLE3=Baby Plays Around
TTITLE4=Airegin
TTITLE5=Hey Joe
TTITLE6=Samba E Amor
TTITLE7=Jam
TTITLE8=Time Has Told Me
TTITLE9=Aquelas Coisas Todas
TTITLE10=Where Do You Start?
EXTD=YEAR: 2012
EXTT0=
EXTT1=
EXTT2=
EXTT3=
EXTT4=
EXTT5=
EXTT6=
EXTT7=
EXTT8=
EXTT9=
EXTT10=
PLAYORDER=
